# xmcd
#
# Track frame offsets:
#	150
#	42346
#	76226
#	123665
#	161016
#
# Disc length: 2792 seconds
#
# Revision: 1
# Processed by: cddbd v1.5.2PL0 Copyright (c) Steve Scherf et al.
# Submitted via: audiograbber 1.83.01
#
DISCID=390ae605
DTITLE=Grateful Dead - 78-04-19 Veterans Memorial Hall, Columbus OH
DYEAR=1900
DGENRE=
TTITLE0=Space
TTITLE1=The Other One
TTITLE2=Wharf Rat
TTITLE3=Around and Around
TTITLE4=Werewolves Of London
EXTD=
EXTT0=
EXTT1=
EXTT2=
EXTT3=
EXTT4=
PLAYORDER=
